<svg xmlns="http://www.w3.org/2000/svg" xml:space="preserve" x="0" y="0" version="1.1" viewBox="0 0 219 50"><style>.st-dark{fill:#4c4b4d}
                        .st-green01{fill:#0f848f}
                        .st-green02{fill:#a5cf64}
                        .st-green03{fill:#008051}
                        .st-white{fill: #FFFFFF}
                        </style>
<g id="sphLogo"><g id="sphLogoType"><path d="M51.6 18.8a4.3 4.3 0 0 0-3.7-1.9c-2.4 0-3.1 1.5-3.1 2.6 0 .5.2 1 .7 1.5.5.5 1.3.8 2.7 1.3 1.8.6 3.4 1.2 4.6 2.3 1 .9 1.9 2.4 1.9 4.8 0 4.4-3.2 7.4-7.9 7.4a9.1 9.1 0 0 1-7.8-4.3l2.9-2.8c1.1 2.2 3.2 3 4.8 3 2 0 3.5-1.2 3.5-3.1 0-.8-.3-1.5-.9-2-.8-.8-2.2-1.2-3.5-1.7-1.2-.4-2.6-1-3.8-2-.8-.6-1.8-1.9-1.8-4.2 0-3.3 2.2-6.6 7.3-6.6a9 9 0 0 1 6.4 2.6l-2.3 3.1zM64.3 13.7c2.5 0 4.3.3 6 1.7a7.3 7.3 0 0 1 2.3 5.5c0 .9-.1 3.3-1.9 5a8 8 0 0 1-5.7 2h-2.8v8.4h-4.4V13.7h6.5zm-2.1 10.4H64c.9 0 1.9 0 2.9-.7.8-.6 1.2-1.7 1.2-2.6 0-1.2-.6-2.1-1.3-2.6-.9-.6-2.1-.7-3.1-.7h-1.5v6.6zM79.4 22.4H89v-8.8h4.4v22.6H89v-10h-9.6v10.1H75V13.7h4.4v8.7z" class="st-white"></path></g><g id="sphLogoSymbol"><path d="M14.9 32.5a2.9 2.9 0 0 1-2.9-2.9v2c0 1.6-1.3 3-3 3s-3-1.3-3-3v-3.3a2.9 2.9 0 0 0-5.8 0v3.3c0 4.9 4 8.8 8.8 8.8s8.8-4 8.8-8.8v-2c.1 1.6-1.3 2.9-2.9 2.9z" class="st-green01"></path><path d="M20.8 18.8c-4.9 0-8.8 4-8.8 8.8v2a2.9 2.9 0 0 1 5.8 0v-2c0-1.6 1.3-3 3-3s3 1.3 3 3v5.3a2.9 2.9 0 0 0 5.8 0v-5.3a8.7 8.7 0 0 0-8.8-8.8z" class="st-green02"></path><circle cx="14.9" cy="29.6" r="2.9" class="st-green03"></circle><circle cx="20.8" cy="12.5" r="2.9" class="st-green02"></circle><circle cx="9" cy="18.8" r="2.9" class="st-green01"></circle></g></g><g id="sphLogoStory"><path d="M106.9 22c-.1-.3-.4-.6-.6-.7-.2-.1-.6-.3-1.1-.3-1 0-1.7.6-1.7 1.5 0 .4.1.6.4.9.3.3.7.5 1.1.6l1 .4a5 5 0 0 1 1.6.9c.5.5.7 1.1.7 1.8 0 1.8-1.4 3-3.2 3-.7 0-1.5-.1-2.2-.8-.5-.5-.8-1.1-.9-1.7l1.1-.3c.1.5.3 1 .6 1.2.4.4.9.5 1.4.5 1.4 0 2-1 2-1.9 0-.4-.1-.8-.5-1.1-.3-.3-.7-.4-1.2-.7l-.9-.4c-.4-.2-.9-.4-1.3-.8s-.7-.9-.7-1.6c0-1.5 1.2-2.5 2.8-2.5a3 3 0 0 1 1.6.4c.4.3.8.7 1 1.1l-1 .5zM110.7 24.8v5.1h-1.1v-5.1h-.7v-1h.7v-2.2h1.1v2.2h1.1v1h-1.1zM112 26.9c0-1.9 1.4-3.2 3.3-3.2s3.3 1.4 3.3 3.2-1.4 3.2-3.3 3.2a3.2 3.2 0 0 1-3.3-3.2zm1.1 0c0 1.5 1.1 2.3 2.2 2.3s2.2-.8 2.2-2.3c0-1.5-1.1-2.3-2.2-2.3s-2.2.8-2.2 2.3zM119.9 23.8h1.1v.7c.1-.2.6-.8 1.4-.8l1 .2-.5 1c-.2-.2-.5-.2-.6-.2-.4 0-.7.2-.9.4-.2.2-.4.6-.4 1.6v3.2h-1.1v-6.1zM126.5 29.3l-2.9-5.5h1.2l2.2 4.4 2-4.4h1.2l-4.6 9.5h-1.2l2.1-4zM136.4 20.1c1 0 1.9.1 2.5.7.7.6.9 1.5.9 2.1 0 1.4-.9 2.8-3.2 2.8h-1V30h-1.1v-9.8l1.9-.1zm-.8 4.5h.9c1.3 0 2.1-.6 2.1-1.8 0-1.6-1.5-1.7-2.2-1.7h-.8v3.5zM141.9 19.2v10.7h-1.1V19.2h1.1zM148.4 23.8h1.1v6.1h-1.1V29c-.4.5-1 1-2.1 1a3 3 0 0 1-3.1-3.2c0-2.1 1.4-3.2 3.1-3.2 1.2 0 1.9.6 2.1 1v-.8zm-4.1 3.1c0 1.3.8 2.3 2.1 2.3s2.1-1.1 2.1-2.3c0-1.6-1.1-2.3-2.1-2.3-1.1 0-2.1.8-2.1 2.3zM156.1 25.5c-.6-.7-1.4-.9-2-.9-1.2 0-2.2.8-2.2 2.3s1.1 2.3 2.2 2.3c.6 0 1.4-.3 2-1v1.3c-.7.5-1.4.6-2 .6-1.9 0-3.4-1.4-3.4-3.2 0-1.9 1.4-3.2 3.4-3.2 1 0 1.6.4 1.9.6l.1 1.2zM163 28.4c-.2.3-.4.7-.8 1-.6.5-1.3.8-2.1.8-1.5 0-3.1-.9-3.1-3.2 0-1.8 1.1-3.2 3-3.2a3 3 0 0 1 2.4 1.1c.4.5.6 1.5.6 2.3h-4.9c0 1.3.9 2.1 2 2.1a2 2 0 0 0 1.3-.4c.3-.2.5-.5.6-.8l1 .3zm-1.1-2.2c-.2-1-.9-1.6-1.9-1.6a2 2 0 0 0-1.9 1.6h3.8zM175.5 26.3l-1.3 1.5 1.7 2.1h-1.4l-1.1-1.4c-.9.9-2.1 1.5-3.2 1.5-1.6 0-2.9-1.2-2.9-2.7 0-1.1.6-1.7.9-2 .5-.5 1.5-1.1 1.7-1.2-.7-.9-1-1.4-1-2.1a2 2 0 0 1 2.2-2.1c1.4 0 2.1 1 2.1 2 0 .5-.1 1.1-.9 1.8l-.8.6 2.1 2.6c.5-.6.9-.9 1.1-1.3l.8.7zm-5-1.4-1.4 1c-.3.2-.7.6-.7 1.4 0 1 .7 1.7 1.8 1.7s2.2-1 2.6-1.4l-2.3-2.7zm.3-1.4.7-.5c.6-.4.7-.8.7-1.1 0-.7-.6-1-1.1-1-.6 0-1.1.5-1.1 1.1 0 .4.2.7.4 1l.4.5zM181.2 24.1h5.2v-4h1.1v9.8h-1.1v-4.8h-5.2v4.8h-1.1v-9.8h1.1v4zM190.6 27.4c0 .4 0 .9.3 1.3.2.2.5.5 1.1.5s.9-.3 1.1-.5c.3-.4.3-.9.3-1.3v-3.6h1.1v3.7c0 .8-.1 1.3-.6 1.8-.6.6-1.3.8-1.9.8s-1.4-.2-1.9-.8c-.5-.5-.6-1.1-.6-1.8v-3.7h1.1v3.6zM196.2 23.8h1.1v.6a2 2 0 0 1 1.6-.8c1.1 0 1.6.8 1.7 1 .6-.9 1.5-1 1.9-1 1.9 0 2 1.5 2 2.4v3.9h-1.1v-3.7c0-.7-.1-1.6-1.1-1.6-1.3 0-1.4 1.2-1.4 1.9v3.4h-1.1v-3.6c0-.4 0-1.7-1.1-1.7-1.2 0-1.4 1.2-1.4 2v3.3h-1.1v-6.1zM211 23.8h1.1v6.1H211V29c-.4.5-1 1-2.1 1a3 3 0 0 1-3.1-3.2c0-2.1 1.4-3.2 3.1-3.2 1.2 0 1.9.6 2.1 1v-.8zm-4.1 3.1c0 1.3.8 2.3 2.1 2.3s2.1-1.1 2.1-2.3c0-1.6-1.1-2.3-2.1-2.3-1.1 0-2.1.8-2.1 2.3zM213.7 23.8h1.1v.7c.2-.2.8-.9 1.8-.9.7 0 1.4.3 1.8.8.3.5.4 1 .4 1.6v3.8h-1.1V26c0-.4 0-.8-.3-1.1-.2-.3-.5-.4-1-.4-.4 0-.8.1-1.1.5-.4.5-.4 1.2-.4 1.6v3.2h-1.1l-.1-6z" class="st-white"></path></g></svg>